<svg width="239" height="173" viewBox="0 0 239 173" fill="none" xmlns="http://www.w3.org/2000/svg">
<path d="M201.975 126.66C191.142 127.66 159.775 121.36 120.975 88.1596C113.893 82.0996 107.214 79.1126 100.975 78.4833M46.9749 147.66C53.9233 120.138 73.0341 75.6652 100.975 78.4833M46.9749 147.66C26.5749 147.66 29.8082 142.993 33.9749 140.66M46.9749 147.66L51.1874 109.41M100.975 78.4833C102.808 85.5421 107.375 105.06 110.975 126.66C114.575 148.26 135.142 135.66 144.975 126.66C145.475 105.826 146.175 61.5596 144.975 51.1596C143.775 40.7596 87.4749 35.4929 59.4749 34.1596L55.4 71.1596M92.4749 51.1596L120.975 11.1596C138.475 3.49292 174.875 -7.24041 180.475 11.1596C187.475 34.1596 288.475 77.8826 190.475 78.4833C112.075 78.9639 67.7583 73.8011 55.4 71.1596M55.4 71.1596L51.1874 109.41M55.4 71.1596C58.77 40.5596 32.1874 58.4096 18.4749 71.1596C18.4749 55.1596 24.1415 24.4929 26.9749 11.1596H72.4749L190.475 163.66L237.475 119.66L210.475 96.6596L130.975 172.16L46.9749 163.66L72.4749 147.66M33.9749 140.66L72.4749 147.66M33.9749 140.66L11.4749 111.16C2.20191 102.785 -9.38021 86.4596 18.4749 88.1596C46.3299 89.8596 51.8895 103.035 51.1874 109.41M72.4749 147.66C76.2832 134.826 77.3575 109.21 51.1874 109.41" stroke="black"/>
</svg>
